<svg id="Layer_1" data-name="Layer 1" xmlns="http://www.w3.org/2000/svg" viewBox="0 0 108.85 95.63"><defs><style>.cls-1{fill:#fff;}</style></defs><title>ICONS for AT</title><path class="cls-1" d="M97.91,26.22H94.55V13.65a2.38,2.38,0,0,0-2.38-2.38H76.72a2.38,2.38,0,0,0-2.39,2.38v3.19a9.42,9.42,0,0,0-6.43-2.53H64.53V3.62a2.38,2.38,0,0,0-2.38-2.38H46.7a2.38,2.38,0,0,0-2.38,2.38V14.31H41a9.53,9.53,0,0,0-9.52,9.53v6.87H16.68a2.39,2.39,0,0,0-2.38,2.38v11H10.94A9.54,9.54,0,0,0,1.41,53.6V73a9.54,9.54,0,0,0,9.53,9.53H37.88a10.05,10.05,0,0,0,1.56-.13,9.42,9.42,0,0,0,1.51.13h27a9.82,9.82,0,0,0,1.55-.13,9.54,9.54,0,0,0,1.52.13H97.91A9.54,9.54,0,0,0,107.44,73V35.74A9.54,9.54,0,0,0,97.91,26.22ZM89.79,16V26.22H79.1V16ZM49.08,6H59.77v8.31H49.08Zm-30,29.47H29.75v8.61H19.07ZM6.18,73V53.6a4.76,4.76,0,0,1,4.76-4.76H31.43V73a9.44,9.44,0,0,0,1.29,4.77H10.94A4.77,4.77,0,0,1,6.18,73ZM41,77.75a3.11,3.11,0,0,1-.43,0l-.21,0-.2,0-.28-.06-.09,0-.32-.09A4.77,4.77,0,0,1,36.19,73V23.84A4.77,4.77,0,0,1,41,19.07h27a4.77,4.77,0,0,1,4.76,4.77v2.38H71a9.54,9.54,0,0,0-9.53,9.52V73a9.54,9.54,0,0,0,1.29,4.77H41ZM102.67,73a4.77,4.77,0,0,1-4.76,4.77H71a3.25,3.25,0,0,1-.44,0l-.21,0-.19,0-.28-.06-.1,0-.32-.09A4.77,4.77,0,0,1,66.21,73V35.74A4.76,4.76,0,0,1,71,31H97.91a4.76,4.76,0,0,1,4.76,4.76Zm-84,17.54a3.88,3.88,0,1,1-3.87-3.88A3.87,3.87,0,0,1,18.62,90.52Zm19.33,0a3.88,3.88,0,1,1-3.88-3.88A3.88,3.88,0,0,1,38,90.52Zm10.69,0a3.88,3.88,0,1,1-3.88-3.88A3.88,3.88,0,0,1,48.64,90.52Zm19.32,0a3.88,3.88,0,1,1-3.87-3.88A3.87,3.87,0,0,1,68,90.52Zm10.69,0a3.88,3.88,0,1,1-3.87-3.88A3.87,3.87,0,0,1,78.65,90.52Zm19.33,0a3.88,3.88,0,1,1-3.88-3.88A3.88,3.88,0,0,1,98,90.52Z"/></svg>