<svg id="Layer_1" data-name="Layer 1" xmlns="http://www.w3.org/2000/svg" viewBox="0 0 98.53 67.17"><defs><style>.cls-1{fill:#fff;}</style></defs><title>ICONS for AT</title><path class="cls-1" d="M21,53a2,2,0,0,1-1.95,2H13.21a2,2,0,0,1-2-2V45.88a1.95,1.95,0,1,1,3.9,0v5.19h3.91A2,2,0,0,1,21,53ZM11.3,24.56H34.93a1.95,1.95,0,1,0,0-3.89H11.3a1.95,1.95,0,1,0,0,3.89Zm-4,8.85L31,33.55a2,2,0,0,0,2-1.93,1.93,1.93,0,0,0-1.93-2L7.36,29.51h0a2,2,0,0,0,0,3.9Zm21.63,7a2,2,0,0,0-1.95-2H3.37a1.95,1.95,0,1,0,0,3.89H27A1.93,1.93,0,0,0,29,40.45ZM82.44,10.38a1.94,1.94,0,0,0-1.25-.45H64.79V9.74A8.8,8.8,0,0,0,56,1H20a8.8,8.8,0,0,0-8.78,8.77v7.35a2,2,0,0,0,1.55,2,2,2,0,0,0,2.35-1.91V11.69A6.83,6.83,0,0,1,22,4.86H54.08a6.83,6.83,0,0,1,6.83,6.83V51.07H45a2,2,0,0,0-2,1.55A2,2,0,0,0,44.93,55H68.64a2,2,0,0,0,2-1.55,2,2,0,0,0-1.91-2.34H64.81V13.83h15.7L93.22,24.35,93.08,51H91.14a2,2,0,0,0-2,1.55,2,2,0,0,0,1.91,2.34h4A1.94,1.94,0,0,0,97,53l.15-29.54a2.06,2.06,0,0,0-.72-1.52ZM40.76,57.44a8.74,8.74,0,0,1-8.69,8.77,8.88,8.88,0,0,1-6.24-2.58,8.62,8.62,0,0,1-2.61-6.19,8.74,8.74,0,0,1,2.61-6.2,8.83,8.83,0,0,1,6.24-2.57A8.74,8.74,0,0,1,40.76,57.44Zm-3.9,0a4.83,4.83,0,0,0-4.79-4.87,4.87,4.87,0,1,0,0,9.74A4.83,4.83,0,0,0,36.86,57.44Zm50.92-32.7a2,2,0,0,1,.64,1.44v10.7a2,2,0,0,1-2,1.95H70.61a2,2,0,0,1-2-1.95v-16a2,2,0,0,1,2-1.95h10a1.88,1.88,0,0,1,1.3.51ZM84.53,27l-4.68-4.21H72.56v12.1h12Zm3.82,30.4a8.75,8.75,0,0,1-8.7,8.77,8.86,8.86,0,0,1-6.23-2.58,8.58,8.58,0,0,1-2.61-6.19,8.7,8.7,0,0,1,2.61-6.2,8.74,8.74,0,0,1,14.93,6.2Zm-3.9,0a4.84,4.84,0,0,0-4.8-4.87,4.87,4.87,0,1,0,0,9.74A4.84,4.84,0,0,0,84.45,57.44Z"/></svg>