<?xml version="1.0" encoding="utf-8"?>
<!-- Generator: Adobe Illustrator 22.1.0, SVG Export Plug-In . SVG Version: 6.00 Build 0)  -->
<svg version="1.1" id="Layer_1" xmlns="http://www.w3.org/2000/svg" xmlns:xlink="http://www.w3.org/1999/xlink" x="0px" y="0px"
	 viewBox="0 0 29.2 19" style="enable-background:new 0 0 29.2 19;" xml:space="preserve">
<style type="text/css">
	.st0{fill:#E11F26;}
	.st1{fill:#E86324;}
	.st2{fill:#F39E1E;}
</style>
<path class="st0" d="M11.2,9.7c0-2.7,1.2-5,3.2-6.6C12.9,2,11.1,1.3,9.2,1.3C4.5,1.3,0.8,5,0.8,9.7S4.5,18,9.2,18
	c2,0,3.8-0.7,5.2-1.8C12.4,14.7,11.2,12.3,11.2,9.7z"/>
<ellipse class="st1" cx="14.4" cy="9.7" rx="3.2" ry="6.6"/>
<path class="st2" d="M27.4,14.2V14h-0.1v-0.1h0.3V14h-0.1L27.4,14.2L27.4,14.2z M27.9,14.2V14V14.2l-0.1,0L27.7,14v0.2h-0.1v-0.3
	h0.1l0.1,0.2l0.1-0.2H28L27.9,14.2L27.9,14.2z"/>
<path class="st2" d="M19.6,1.3c-2,0-3.8,0.7-5.2,1.8c1.9,1.5,3.2,3.9,3.2,6.6s-1.2,5-3.2,6.6c1.4,1.1,3.2,1.8,5.2,1.8
	c4.6,0,8.4-3.8,8.4-8.4S24.2,1.3,19.6,1.3z"/>
</svg>
