<svg id="Layer_1" data-name="Layer 1" xmlns="http://www.w3.org/2000/svg" viewBox="0 0 1799.39 340.75"><defs><style>.cls-1{fill:#ca1f47;}.cls-2{fill:#6bc6b2;}.cls-3{fill:#ecce22;}.cls-4{fill:#8b459a;}.cls-5{fill:#bad532;}.cls-6{fill:#c71e8a;}.cls-7{fill:#ef7a22;}.cls-8{fill:#334b9d;}</style></defs><title>AT_SBC_LOGO_Final_TM</title><path d="M1761,84.32v5.1h-7.25v21.31h-5.43V89.42H1741v-5.1Zm8,0,7.73,10.23,7.74-10.23h5v26.41h-5.21v-18l-7.44,9.56h-.15l-7.44-9.56v18h-5.21V84.32ZM473.52,171.72A62.13,62.13,0,0,0,456.2,164l-11.81-3.29-6.91-1.93L432,157.25,420.52,154a33.56,33.56,0,0,1-12.37-6,12.17,12.17,0,0,1-4.67-10c0-5,2.23-9,6.81-12.29s10.74-4.89,18.32-4.89c8.3,0,14.95,2.21,19.75,6.57s7.36,10.14,7.65,17.22l0,.59h33.8l0-.64c-.45-15.43-6.15-28.53-16.93-38.92S447.37,90,429.07,90c-18.15,0-32.78,4.89-43.47,14.52s-16.15,21.75-16.15,36c0,8.57,1.63,16.06,4.85,22.27a36.69,36.69,0,0,0,12.63,14.36A63,63,0,0,0,404,184.72l5.64,1.58,12.78,3.57,16.77,4.68a31.54,31.54,0,0,1,12.21,6.11,12.67,12.67,0,0,1,4.57,10A14.86,14.86,0,0,1,448.78,224c-4.88,3.18-11.82,4.8-20.62,4.8-9.68,0-17.21-2.33-22.38-6.91a24.52,24.52,0,0,1-8.45-17.35l0-.57h-34l0,.64a64.29,64.29,0,0,0,4,20A56.54,56.54,0,0,0,378,242.07c4.75,5.37,11.35,9.69,19.61,12.82s17.9,4.71,28.69,4.71c19.19,0,34.92-4.68,46.74-13.92S491,224.26,491,209.55c0-8.89-1.61-16.65-4.8-23.06A36.58,36.58,0,0,0,473.52,171.72Zm101.66-38.65c-14.53,0-25.42,4.21-32.42,12.52V84.32H509.18V256.41h33.58V187.68c0-8,2.1-14.34,6.22-18.84s10-6.74,17.54-6.74c13.23,0,19.66,7.47,19.66,22.84v71.47h33.58V181.3c0-14.66-3.88-26.49-11.54-35.15S589.42,133.07,575.18,133.07Zm122,0c-18.77,0-34.18,6.16-45.78,18.3s-17.49,27.19-17.49,44.74,5.89,32.6,17.49,44.73,27,18.3,45.78,18.3,34.17-6.16,45.78-18.3,17.48-27.19,17.48-44.73-5.88-32.6-17.48-44.74S715.91,133.07,697.15,133.07Zm29.68,63c0,10.26-2.82,18.48-8.38,24.41s-12.71,8.91-21.3,8.91-15.76-3-21.31-8.91-8.37-14.14-8.37-24.41,2.81-18.48,8.37-24.41,12.72-8.92,21.31-8.92,15.75,3,21.3,8.92S726.83,185.84,726.83,196.11Zm117.12-63c-16.65,0-29.16,5.39-37.2,16V135.8H775.67v168h33.58v-59a40.3,40.3,0,0,0,13.36,9.86,48.9,48.9,0,0,0,21.34,4.5c17,0,30.61-6,40.56-18s15-27.06,15-45-5-33.14-15-45.05S860.91,133.07,844,133.07Zm21.93,63c0,9.67-2.67,17.74-7.94,24s-12.25,9.35-20.83,9.35-15.59-3.14-20.83-9.35-7.94-14.3-7.94-24,2.67-17.74,7.94-24,12.25-9.35,20.83-9.35,15.59,3.15,20.83,9.35S865.88,186.44,865.88,196.11Zm153.71-40.62A50,50,0,0,0,1003.1,143a48.72,48.72,0,0,0-20.88-4.5c-11.25,0-21.84,4.05-31.51,12V84.32H931.49V256.41h19.22v-9.53c9.67,8.14,20.26,12.26,31.51,12.26a48.66,48.66,0,0,0,20.88-4.5,49.68,49.68,0,0,0,16.49-12.45,57.09,57.09,0,0,0,10.71-19,80.12,80.12,0,0,0,0-48.7A56.92,56.92,0,0,0,1019.59,155.49Zm-5.41,43.35a58.59,58.59,0,0,1-2.6,17.81,42.41,42.41,0,0,1-7.18,13.81,33.47,33.47,0,0,1-11,8.95,30.41,30.41,0,0,1-14,3.23c-10.19,0-19.87-4.47-28.77-13.31v-61c8.9-8.83,18.58-13.31,28.77-13.31a30.45,30.45,0,0,1,14,3.24,33.5,33.5,0,0,1,11,8.95,42.51,42.51,0,0,1,7.18,13.81A58.59,58.59,0,0,1,1014.18,198.84Zm232.28-75.93c10.75,0,20,2.76,27.43,8.2s12.42,13.17,14.8,23l.11.47h36.75l-.11-.71c-3-19.51-11.9-35.2-26.31-46.64S1267,90,1246.46,90c-23.6,0-43.37,7.88-58.75,23.43s-23.19,36.14-23.19,61.25,7.8,45.73,23.19,61.26,35.15,23.42,58.75,23.42c20.56,0,38.27-5.79,52.67-17.22s23.26-27.13,26.31-46.63l.11-.71H1288.8l-.11.47c-2.38,9.83-7.36,17.57-14.8,23s-16.67,8.19-27.43,8.19c-14.33,0-25.63-4.68-33.59-13.91s-12-22-12-37.87,4.05-28.61,12-37.87S1232.14,122.91,1246.46,122.91Zm156.75,10.16c-18.77,0-34.17,6.16-45.78,18.3S1340,178.56,1340,196.11s5.88,32.59,17.48,44.73,27,18.3,45.78,18.3,34.17-6.16,45.78-18.3,17.48-27.19,17.48-44.73-5.88-32.6-17.48-44.74S1422,133.07,1403.21,133.07Zm21.31,87.45c-5.55,5.91-12.72,8.91-21.31,8.91s-15.76-3-21.3-8.91-8.38-14.15-8.38-24.41,2.82-18.48,8.38-24.41,12.71-8.92,21.3-8.92,15.76,3,21.31,8.92,8.37,14.14,8.37,24.41S1430.08,214.59,1424.52,220.52Zm57.22-136.2V256.41h33.58V84.32Zm112.1,48.75c-18.77,0-34.18,6.16-45.78,18.3s-17.48,27.19-17.48,44.74,5.88,32.6,17.48,44.73,27,18.3,45.78,18.3,34.17-6.16,45.78-18.3,17.48-27.19,17.48-44.73-5.88-32.6-17.48-44.74S1612.6,133.07,1593.84,133.07Zm21.3,87.45c-5.54,5.91-12.71,8.91-21.3,8.91s-15.76-3-21.31-8.91-8.37-14.14-8.37-24.41,2.82-18.48,8.37-24.41,12.72-8.92,21.31-8.92,15.75,3,21.3,8.92,8.38,14.14,8.38,24.41S1620.7,214.59,1615.14,220.52Zm125.31-85.63-3.88-.23h0c-15,0-26.08,5.11-33.1,15.18v-14h-31.08V256.41h33.58V196.33c0-10.57,2.36-18.39,7-23.26s11.74-7.33,21.08-7.33a32.06,32.06,0,0,1,6.26.67l.74.15V134.93ZM1082,252.82l-20.65,51h19.09l64.08-161.67.34-.85h-19.79l-.15.4-33.82,87.57-33.37-87.57-.15-.4h-20l.34.85Z"/><path class="cls-1" d="M170.39,10a38.68,38.68,0,1,0,38.68,38.68A38.72,38.72,0,0,0,170.39,10Z"/><path class="cls-2" d="M170.39,253.39a38.68,38.68,0,1,0,38.68,38.68A38.72,38.72,0,0,0,170.39,253.39Z"/><path class="cls-3" d="M292.07,131.69a38.69,38.69,0,1,0,38.69,38.69A38.72,38.72,0,0,0,292.07,131.69Z"/><path class="cls-4" d="M48.69,131.69a38.69,38.69,0,1,0,38.69,38.69A38.73,38.73,0,0,0,48.69,131.69Z"/><path class="cls-5" d="M256.43,217.74a38.65,38.65,0,1,0,27.36,11.33A38.42,38.42,0,0,0,256.43,217.74Z"/><path class="cls-6" d="M84.33,45.64A38.69,38.69,0,1,0,111.69,57,38.44,38.44,0,0,0,84.33,45.64Z"/><path class="cls-7" d="M256.43,45.64A38.69,38.69,0,1,0,283.79,57,38.42,38.42,0,0,0,256.43,45.64Z"/><path class="cls-8" d="M84.33,217.74a38.65,38.65,0,1,0,27.36,11.33A38.44,38.44,0,0,0,84.33,217.74Z"/></svg>