<?xml version="1.0" encoding="utf-8"?>
<!-- Generator: Adobe Illustrator 22.1.0, SVG Export Plug-In . SVG Version: 6.00 Build 0)  -->
<svg version="1.1" id="Layer_1" xmlns="http://www.w3.org/2000/svg" xmlns:xlink="http://www.w3.org/1999/xlink" x="0px" y="0px"
	 viewBox="0 0 41.3 19" style="enable-background:new 0 0 41.3 19;" xml:space="preserve">
<style type="text/css">
	.st0{fill:#0059A0;}
	.st1{fill:#F9A61C;}
</style>
<g>
	<polyline class="st0" points="14.4,15.5 16.4,4 19.5,4 17.6,15.5 14.4,15.5 	"/>
	<path class="st0" d="M28.9,4.3c-0.6-0.2-1.6-0.5-2.8-0.5c-3.1,0-5.3,1.6-5.3,3.8c0,1.6,1.6,2.6,2.7,3.1c1.2,0.6,1.6,0.9,1.6,1.4
		c0,0.8-1,1.1-1.9,1.1c-1.3,0-1.9-0.2-2.9-0.6L20,12.5l-0.4,2.6c0.7,0.3,2.1,0.6,3.5,0.6c3.3,0,5.4-1.5,5.4-3.9
		c0-1.3-0.8-2.3-2.6-3.1c-1.1-0.5-1.8-0.9-1.8-1.4c0-0.5,0.6-1,1.8-1c1,0,1.8,0.2,2.3,0.4l0.3,0.1L28.9,4.3"/>
	<path class="st0" d="M33.1,11.4c0.3-0.7,1.2-3.2,1.2-3.2c0,0,0.3-0.7,0.4-1.1l0.2,1c0,0,0.6,2.7,0.7,3.3H33.1 M36.9,4h-2.4
		c-0.7,0-1.3,0.2-1.6,1l-4.6,10.5h3.3c0,0,0.5-1.4,0.7-1.7c0.4,0,3.5,0,4,0c0.1,0.4,0.4,1.7,0.4,1.7h2.9L36.9,4"/>
	<path class="st0" d="M11.8,4l-3.1,7.8l-0.3-1.6C7.9,8.4,6.1,6.5,4.1,5.5l2.8,10l3.3,0L15.1,4H11.8"/>
	<path class="st1" d="M5.9,4h-5l0,0.2c3.9,0.9,6.5,3.2,7.6,6L7.3,5C7.1,4.3,6.6,4.1,5.9,4"/>
</g>
</svg>
